<svg width="168" height="168" viewBox="0 0 168 168" fill="none" xmlns="http://www.w3.org/2000/svg">
<rect x="16" y="5" width="136" height="92" rx="16" fill="#2979FF"/>
<rect x="16" y="59" width="136" height="38" fill="#3E86FF"/>
<path d="M136 49C136 40.1634 143.163 33 152 33V33C160.837 33 168 40.1634 168 49V97H136V49Z" fill="#5494FF"/>
<path d="M0 49C0 40.1634 7.16344 33 16 33V33C24.8366 33 32 40.1634 32 49V97H0V49Z" fill="#5494FF"/>
<path d="M10.648 148.392V121.752C10.648 119.4 12.184 117.816 14.584 117.816C16.984 117.816 18.52 119.4 18.52 121.752V146.376H31.672C33.928 146.376 35.752 147.528 35.752 149.688C35.752 151.848 33.928 153 31.672 153H15.256C12.472 153 10.648 151.896 10.648 148.392ZM45.0798 140.424C45.0798 144.696 46.8558 148.44 51.0318 148.44C55.2078 148.44 56.9838 144.696 56.9838 140.424C56.9838 135.864 55.1118 132.456 51.0318 132.456C46.9518 132.456 45.0798 135.864 45.0798 140.424ZM38.0718 140.424C38.0718 133.032 42.5838 127.272 51.0318 127.272C59.4798 127.272 63.9918 133.032 63.9918 140.424C63.9918 147.432 60.5837 153.624 51.0318 153.624C41.4798 153.624 38.0718 147.432 38.0718 140.424ZM70.3424 147.384V132.504H69.1424C67.1744 132.504 66.3584 131.736 66.3584 130.2C66.3584 128.664 67.1744 127.896 69.1424 127.896H70.3424V123.624C70.3424 121.32 71.7344 120.12 73.8464 120.12C75.9584 120.12 77.3504 121.32 77.3504 123.624V127.896H79.4624C81.5264 127.896 82.6304 128.52 82.6304 130.2C82.6304 131.88 81.5264 132.504 79.4624 132.504H77.3504V146.52C77.3504 147.576 77.9264 148.152 79.1744 148.152H80.1824C81.7184 148.152 82.6304 149.016 82.6304 150.504C82.6304 152.52 80.9024 153.624 77.5424 153.624C72.4544 153.624 70.3424 151.512 70.3424 147.384ZM108.076 141.768H92.236C92.236 145.464 94.636 148.152 98.716 148.152C103.996 148.152 103.996 144.696 106.828 144.696C108.508 144.696 109.708 146.136 109.708 147.432C109.708 151.656 102.94 153.624 98.716 153.624C88.924 153.624 85.228 147 85.228 140.904C85.228 132.744 90.172 127.272 98.476 127.272C106.54 127.272 111.148 132.984 111.148 138.744C111.148 141.144 110.428 141.768 108.076 141.768ZM92.236 137.736H104.524C104.14 134.52 101.74 132.168 98.62 132.168C95.116 132.168 93.004 134.328 92.236 137.736ZM116.059 150.12V130.536C116.059 128.424 117.451 127.272 119.227 127.272C121.003 127.272 122.395 128.424 122.395 130.536V133.224H122.491C123.307 130.296 124.891 127.272 128.299 127.272C130.507 127.272 132.139 128.712 132.139 130.68C132.139 133.272 130.411 134.184 128.683 134.184H127.435C124.603 134.184 123.067 136.152 123.067 141.96V150.12C123.067 151.992 122.299 153.624 119.563 153.624C116.827 153.624 116.059 151.992 116.059 150.12ZM157.658 134.472V146.232C157.658 149.16 158.378 149.832 158.378 150.936C158.378 152.52 156.89 153.624 155.21 153.624C152.186 153.624 151.178 151.704 151.082 149.544C148.346 152.568 145.178 153.624 141.482 153.624C137.498 153.624 133.562 150.888 133.562 146.472C133.562 140.664 137.978 139.032 143.354 138.408L147.626 137.928C149.306 137.736 150.65 137.352 150.65 135.336C150.65 133.32 148.586 132.456 146.234 132.456C141.05 132.456 140.906 136.296 138.122 136.296C136.346 136.296 135.146 135.048 135.146 133.608C135.146 130.824 139.082 127.272 146.282 127.272C153.002 127.272 157.658 129.432 157.658 134.472ZM150.65 143.928V141.192C149.882 141.912 148.442 142.152 147.626 142.296L145.082 142.68C142.154 143.112 140.57 144.024 140.57 146.136C140.57 147.72 142.058 149.016 144.458 149.016C148.298 149.016 150.65 146.52 150.65 143.928Z" fill="white"/>
</svg>
